<mxfile host="app.diagrams.net" modified="2023-08-16T23:34:04.574Z" agent="Mozilla/5.0 (Windows NT 10.0; Win64; x64) AppleWebKit/537.36 (KHTML, like Gecko) Chrome/115.0.0.0 Safari/537.36" etag="pMIPqrjL0A8peEecsIDo" version="21.6.7" type="github" pages="3">
  <diagram name="Current IT" id="6XpVCD9rDU22tu1jSsn3">
    <mxGraphModel dx="1674" dy="768" grid="1" gridSize="10" guides="1" tooltips="1" connect="1" arrows="1" fold="1" page="1" pageScale="1" pageWidth="827" pageHeight="1169" math="0" shadow="0">
      <root>
        <mxCell id="1j2eaJcwRBvJJySyE-6o-0" />
        <mxCell id="1j2eaJcwRBvJJySyE-6o-1" parent="1j2eaJcwRBvJJySyE-6o-0" />
        <mxCell id="1j2eaJcwRBvJJySyE-6o-2" value="&lt;font style=&quot;font-size: 18px;&quot;&gt;HIS Innovations Group - Innovations and Information Technology&lt;/font&gt;" style="swimlane;html=1;startSize=20;horizontal=1;containerType=tree;glass=0;" vertex="1" parent="1j2eaJcwRBvJJySyE-6o-1">
          <mxGeometry x="450" y="70" width="660" height="550" as="geometry" />
        </mxCell>
        <UserObject label="Jason Frank&lt;br&gt;CEO" name="Tessa Miller" position="CFO" location="Office 1" email="me@example.com" placeholders="1" link="https://www.draw.io" id="1j2eaJcwRBvJJySyE-6o-3">
          <mxCell style="label;image=https://cdn3.iconfinder.com/data/icons/user-avatars-1/512/users-3-128.png;whiteSpace=wrap;html=1;rounded=0;glass=0;treeMoving=1;treeFolding=1;" vertex="1" parent="1j2eaJcwRBvJJySyE-6o-2">
            <mxGeometry x="285" y="35" width="180" height="70" as="geometry" />
          </mxCell>
        </UserObject>
        <mxCell id="1j2eaJcwRBvJJySyE-6o-4" value="" style="edgeStyle=orthogonalEdgeStyle;rounded=0;orthogonalLoop=1;jettySize=auto;html=1;" edge="1" parent="1j2eaJcwRBvJJySyE-6o-2" source="1j2eaJcwRBvJJySyE-6o-3" target="1j2eaJcwRBvJJySyE-6o-5">
          <mxGeometry relative="1" as="geometry" />
        </mxCell>
        <UserObject label="John Saefke&lt;br&gt;CFO" name="Tessa Miller" position="CFO" location="Office 1" email="me@example.com" placeholders="1" link="https://www.draw.io" id="1j2eaJcwRBvJJySyE-6o-5">
          <mxCell style="label;image=https://cdn3.iconfinder.com/data/icons/user-avatars-1/512/users-3-128.png;whiteSpace=wrap;html=1;rounded=0;glass=0;treeMoving=1;treeFolding=1;" vertex="1" parent="1j2eaJcwRBvJJySyE-6o-2">
            <mxGeometry x="120" y="145" width="180" height="70" as="geometry" />
          </mxCell>
        </UserObject>
        <mxCell id="1j2eaJcwRBvJJySyE-6o-6" value="" style="edgeStyle=orthogonalEdgeStyle;rounded=0;orthogonalLoop=1;jettySize=auto;html=1;" edge="1" parent="1j2eaJcwRBvJJySyE-6o-2" source="1j2eaJcwRBvJJySyE-6o-3" target="1j2eaJcwRBvJJySyE-6o-7">
          <mxGeometry relative="1" as="geometry" />
        </mxCell>
        <UserObject label="Brian Keegan&lt;br&gt;CPO" name="Tessa Miller" position="CFO" location="Office 1" email="me@example.com" placeholders="1" link="https://www.draw.io" id="1j2eaJcwRBvJJySyE-6o-7">
          <mxCell style="label;image=https://cdn3.iconfinder.com/data/icons/user-avatars-1/512/users-3-128.png;whiteSpace=wrap;html=1;rounded=0;glass=0;treeMoving=1;treeFolding=1;" vertex="1" parent="1j2eaJcwRBvJJySyE-6o-2">
            <mxGeometry x="465" y="145" width="180" height="70" as="geometry" />
          </mxCell>
        </UserObject>
        <mxCell id="1j2eaJcwRBvJJySyE-6o-8" value="" style="edgeStyle=orthogonalEdgeStyle;rounded=0;orthogonalLoop=1;jettySize=auto;html=1;" edge="1" parent="1j2eaJcwRBvJJySyE-6o-2" source="1j2eaJcwRBvJJySyE-6o-5" target="1j2eaJcwRBvJJySyE-6o-9">
          <mxGeometry relative="1" as="geometry">
            <mxPoint x="895" y="175" as="sourcePoint" />
          </mxGeometry>
        </mxCell>
        <UserObject label="Andrew Dall&lt;br&gt;Upward Technology&lt;br&gt;&lt;b&gt;Director of Account Management&lt;/b&gt;" name="Tessa Miller" position="CFO" location="Office 1" email="me@example.com" placeholders="1" link="https://www.draw.io" id="1j2eaJcwRBvJJySyE-6o-9">
          <mxCell style="label;image=https://cdn3.iconfinder.com/data/icons/user-avatars-1/512/users-3-128.png;whiteSpace=wrap;html=1;rounded=0;glass=0;treeMoving=1;treeFolding=1;" vertex="1" parent="1j2eaJcwRBvJJySyE-6o-2">
            <mxGeometry x="10" y="255" width="180" height="70" as="geometry" />
          </mxCell>
        </UserObject>
        <mxCell id="1j2eaJcwRBvJJySyE-6o-10" value="" style="edgeStyle=orthogonalEdgeStyle;rounded=0;orthogonalLoop=1;jettySize=auto;html=1;" edge="1" parent="1j2eaJcwRBvJJySyE-6o-2" source="1j2eaJcwRBvJJySyE-6o-5" target="1j2eaJcwRBvJJySyE-6o-11">
          <mxGeometry relative="1" as="geometry">
            <mxPoint x="895" y="175" as="sourcePoint" />
          </mxGeometry>
        </mxCell>
        <UserObject label="Devin Close&lt;br&gt;Finance Business Partner" name="Tessa Miller" position="CFO" location="Office 1" email="me@example.com" placeholders="1" link="https://www.draw.io" id="1j2eaJcwRBvJJySyE-6o-11">
          <mxCell style="label;image=https://cdn3.iconfinder.com/data/icons/user-avatars-1/512/users-3-128.png;whiteSpace=wrap;html=1;rounded=0;glass=0;treeMoving=1;treeFolding=1;" vertex="1" parent="1j2eaJcwRBvJJySyE-6o-2">
            <mxGeometry x="230.00000000000023" y="255" width="180" height="70" as="geometry" />
          </mxCell>
        </UserObject>
        <mxCell id="1j2eaJcwRBvJJySyE-6o-12" value="" style="edgeStyle=orthogonalEdgeStyle;rounded=0;orthogonalLoop=1;jettySize=auto;html=1;" edge="1" parent="1j2eaJcwRBvJJySyE-6o-2" source="1j2eaJcwRBvJJySyE-6o-9" target="1j2eaJcwRBvJJySyE-6o-13">
          <mxGeometry relative="1" as="geometry">
            <mxPoint x="794" y="325" as="sourcePoint" />
          </mxGeometry>
        </mxCell>
        <UserObject label="Brad Wylie&lt;br&gt;Upward Technology&lt;br&gt;Project Manager" name="Tessa Miller" position="CFO" location="Office 1" email="me@example.com" placeholders="1" link="https://www.draw.io" id="1j2eaJcwRBvJJySyE-6o-13">
          <mxCell style="label;image=https://cdn3.iconfinder.com/data/icons/user-avatars-1/512/users-3-128.png;whiteSpace=wrap;html=1;rounded=0;glass=0;treeMoving=1;treeFolding=1;" vertex="1" parent="1j2eaJcwRBvJJySyE-6o-2">
            <mxGeometry x="10" y="355" width="180" height="70" as="geometry" />
          </mxCell>
        </UserObject>
        <mxCell id="TWT6Pc5Pv4wA85bn9Spz-0" value="" style="edgeStyle=orthogonalEdgeStyle;rounded=0;orthogonalLoop=1;jettySize=auto;html=1;" edge="1" target="TWT6Pc5Pv4wA85bn9Spz-1" source="1j2eaJcwRBvJJySyE-6o-13" parent="1j2eaJcwRBvJJySyE-6o-2">
          <mxGeometry relative="1" as="geometry">
            <mxPoint x="550" y="395" as="sourcePoint" />
          </mxGeometry>
        </mxCell>
        <UserObject label="Nate Wehe&lt;br&gt;Upward Technology&lt;br&gt;Onsite Coordinator" name="Tessa Miller" position="CFO" location="Office 1" email="me@example.com" placeholders="1" link="https://www.draw.io" id="TWT6Pc5Pv4wA85bn9Spz-1">
          <mxCell style="label;image=https://cdn3.iconfinder.com/data/icons/user-avatars-1/512/users-3-128.png;whiteSpace=wrap;html=1;rounded=0;glass=0;treeMoving=1;treeFolding=1;" vertex="1" parent="1j2eaJcwRBvJJySyE-6o-2">
            <mxGeometry x="10" y="465" width="180" height="70" as="geometry" />
          </mxCell>
        </UserObject>
      </root>
    </mxGraphModel>
  </diagram>
  <diagram name="First Steps IT" id="9Wl5XQhocSM5mQeiK9ul">
    <mxGraphModel dx="1456" dy="668" grid="1" gridSize="10" guides="1" tooltips="1" connect="1" arrows="1" fold="1" page="1" pageScale="1" pageWidth="827" pageHeight="1169" math="0" shadow="0">
      <root>
        <mxCell id="wZEPH2soSmf4A2ggSO-u-0" />
        <mxCell id="wZEPH2soSmf4A2ggSO-u-1" parent="wZEPH2soSmf4A2ggSO-u-0" />
        <mxCell id="wZEPH2soSmf4A2ggSO-u-2" value="&lt;font style=&quot;font-size: 18px;&quot;&gt;HIS Innovations Group - Innovations and Information Technology&lt;/font&gt;" style="swimlane;html=1;startSize=20;horizontal=1;containerType=tree;glass=0;" vertex="1" parent="wZEPH2soSmf4A2ggSO-u-1">
          <mxGeometry x="450" y="70" width="660" height="440" as="geometry" />
        </mxCell>
        <UserObject label="Jason Frank&lt;br&gt;CEO" name="Tessa Miller" position="CFO" location="Office 1" email="me@example.com" placeholders="1" link="https://www.draw.io" id="wZEPH2soSmf4A2ggSO-u-3">
          <mxCell style="label;image=https://cdn3.iconfinder.com/data/icons/user-avatars-1/512/users-3-128.png;whiteSpace=wrap;html=1;rounded=0;glass=0;treeMoving=1;treeFolding=1;" vertex="1" parent="wZEPH2soSmf4A2ggSO-u-2">
            <mxGeometry x="285" y="35" width="180" height="70" as="geometry" />
          </mxCell>
        </UserObject>
        <mxCell id="dzJQ5zAQPVhoEwp7_O2w-0" value="" style="edgeStyle=orthogonalEdgeStyle;rounded=0;orthogonalLoop=1;jettySize=auto;html=1;" edge="1" source="wZEPH2soSmf4A2ggSO-u-3" target="dzJQ5zAQPVhoEwp7_O2w-1" parent="wZEPH2soSmf4A2ggSO-u-2">
          <mxGeometry relative="1" as="geometry" />
        </mxCell>
        <UserObject label="John Saefke&lt;br&gt;CFO" name="Tessa Miller" position="CFO" location="Office 1" email="me@example.com" placeholders="1" link="https://www.draw.io" id="dzJQ5zAQPVhoEwp7_O2w-1">
          <mxCell style="label;image=https://cdn3.iconfinder.com/data/icons/user-avatars-1/512/users-3-128.png;whiteSpace=wrap;html=1;rounded=0;glass=0;treeMoving=1;treeFolding=1;" vertex="1" parent="wZEPH2soSmf4A2ggSO-u-2">
            <mxGeometry x="120" y="145" width="180" height="70" as="geometry" />
          </mxCell>
        </UserObject>
        <mxCell id="dzJQ5zAQPVhoEwp7_O2w-2" value="" style="edgeStyle=orthogonalEdgeStyle;rounded=0;orthogonalLoop=1;jettySize=auto;html=1;" edge="1" source="wZEPH2soSmf4A2ggSO-u-3" target="dzJQ5zAQPVhoEwp7_O2w-3" parent="wZEPH2soSmf4A2ggSO-u-2">
          <mxGeometry relative="1" as="geometry" />
        </mxCell>
        <UserObject label="Brian Keegan&lt;br&gt;CPO" name="Tessa Miller" position="CFO" location="Office 1" email="me@example.com" placeholders="1" link="https://www.draw.io" id="dzJQ5zAQPVhoEwp7_O2w-3">
          <mxCell style="label;image=https://cdn3.iconfinder.com/data/icons/user-avatars-1/512/users-3-128.png;whiteSpace=wrap;html=1;rounded=0;glass=0;treeMoving=1;treeFolding=1;" vertex="1" parent="wZEPH2soSmf4A2ggSO-u-2">
            <mxGeometry x="465" y="145" width="180" height="70" as="geometry" />
          </mxCell>
        </UserObject>
        <mxCell id="dzJQ5zAQPVhoEwp7_O2w-4" value="" style="edgeStyle=orthogonalEdgeStyle;rounded=0;orthogonalLoop=1;jettySize=auto;html=1;" edge="1" target="dzJQ5zAQPVhoEwp7_O2w-5" source="dzJQ5zAQPVhoEwp7_O2w-1" parent="wZEPH2soSmf4A2ggSO-u-2">
          <mxGeometry relative="1" as="geometry">
            <mxPoint x="895" y="175" as="sourcePoint" />
          </mxGeometry>
        </mxCell>
        <UserObject label="Nate Wehe&lt;br&gt;Information Technology" name="Tessa Miller" position="CFO" location="Office 1" email="me@example.com" placeholders="1" link="https://www.draw.io" id="dzJQ5zAQPVhoEwp7_O2w-5">
          <mxCell style="label;image=https://cdn3.iconfinder.com/data/icons/user-avatars-1/512/users-3-128.png;whiteSpace=wrap;html=1;rounded=0;glass=0;treeMoving=1;treeFolding=1;" vertex="1" parent="wZEPH2soSmf4A2ggSO-u-2">
            <mxGeometry x="10" y="255" width="180" height="70" as="geometry" />
          </mxCell>
        </UserObject>
        <mxCell id="dzJQ5zAQPVhoEwp7_O2w-6" value="" style="edgeStyle=orthogonalEdgeStyle;rounded=0;orthogonalLoop=1;jettySize=auto;html=1;" edge="1" target="dzJQ5zAQPVhoEwp7_O2w-7" source="dzJQ5zAQPVhoEwp7_O2w-1" parent="wZEPH2soSmf4A2ggSO-u-2">
          <mxGeometry relative="1" as="geometry">
            <mxPoint x="895" y="175" as="sourcePoint" />
          </mxGeometry>
        </mxCell>
        <UserObject label="Devin Close&lt;br&gt;Digital Innovations" name="Tessa Miller" position="CFO" location="Office 1" email="me@example.com" placeholders="1" link="https://www.draw.io" id="dzJQ5zAQPVhoEwp7_O2w-7">
          <mxCell style="label;image=https://cdn3.iconfinder.com/data/icons/user-avatars-1/512/users-3-128.png;whiteSpace=wrap;html=1;rounded=0;glass=0;treeMoving=1;treeFolding=1;" vertex="1" parent="wZEPH2soSmf4A2ggSO-u-2">
            <mxGeometry x="230.00000000000023" y="255" width="180" height="70" as="geometry" />
          </mxCell>
        </UserObject>
        <mxCell id="dzJQ5zAQPVhoEwp7_O2w-8" value="" style="edgeStyle=orthogonalEdgeStyle;rounded=0;orthogonalLoop=1;jettySize=auto;html=1;" edge="1" target="dzJQ5zAQPVhoEwp7_O2w-9" source="dzJQ5zAQPVhoEwp7_O2w-5" parent="wZEPH2soSmf4A2ggSO-u-2">
          <mxGeometry relative="1" as="geometry">
            <mxPoint x="794" y="325" as="sourcePoint" />
          </mxGeometry>
        </mxCell>
        <UserObject label="MSP&lt;br&gt;Upward Technology" name="Tessa Miller" position="CFO" location="Office 1" email="me@example.com" placeholders="1" link="https://www.draw.io" id="dzJQ5zAQPVhoEwp7_O2w-9">
          <mxCell style="label;image=https://cdn3.iconfinder.com/data/icons/user-avatars-1/512/users-3-128.png;whiteSpace=wrap;html=1;rounded=0;glass=0;treeMoving=1;treeFolding=1;" vertex="1" parent="wZEPH2soSmf4A2ggSO-u-2">
            <mxGeometry x="10" y="355" width="180" height="70" as="geometry" />
          </mxCell>
        </UserObject>
        <mxCell id="dzJQ5zAQPVhoEwp7_O2w-10" value="" style="endArrow=classic;startArrow=classic;html=1;rounded=0;" edge="1" parent="wZEPH2soSmf4A2ggSO-u-2" source="dzJQ5zAQPVhoEwp7_O2w-5" target="dzJQ5zAQPVhoEwp7_O2w-7">
          <mxGeometry width="50" height="50" relative="1" as="geometry">
            <mxPoint x="400" y="235" as="sourcePoint" />
            <mxPoint x="450" y="185" as="targetPoint" />
          </mxGeometry>
        </mxCell>
        <mxCell id="dzJQ5zAQPVhoEwp7_O2w-12" value="" style="edgeStyle=orthogonalEdgeStyle;rounded=0;orthogonalLoop=1;jettySize=auto;html=1;" edge="1" target="dzJQ5zAQPVhoEwp7_O2w-13" source="dzJQ5zAQPVhoEwp7_O2w-7" parent="wZEPH2soSmf4A2ggSO-u-2">
          <mxGeometry relative="1" as="geometry">
            <mxPoint x="660" y="285" as="sourcePoint" />
          </mxGeometry>
        </mxCell>
        <UserObject label="Ryan Stultz&lt;br&gt;Business Analyst" name="Tessa Miller" position="CFO" location="Office 1" email="me@example.com" placeholders="1" link="https://www.draw.io" id="dzJQ5zAQPVhoEwp7_O2w-13">
          <mxCell style="label;image=https://cdn3.iconfinder.com/data/icons/user-avatars-1/512/users-3-128.png;whiteSpace=wrap;html=1;rounded=0;glass=0;treeMoving=1;treeFolding=1;" vertex="1" parent="wZEPH2soSmf4A2ggSO-u-2">
            <mxGeometry x="230.00000000000023" y="355" width="180" height="70" as="geometry" />
          </mxCell>
        </UserObject>
      </root>
    </mxGraphModel>
  </diagram>
  <diagram name="Ideal State With Board" id="6F65yMQZQkbB0_kNaMnj">
    <mxGraphModel dx="2796" dy="904" grid="1" gridSize="10" guides="1" tooltips="1" connect="1" arrows="1" fold="1" page="1" pageScale="1" pageWidth="827" pageHeight="1169" math="0" shadow="0">
      <root>
        <mxCell id="Slj-wHpwv6HR0UAHgNe2-0" />
        <mxCell id="Slj-wHpwv6HR0UAHgNe2-1" parent="Slj-wHpwv6HR0UAHgNe2-0" />
        <mxCell id="Slj-wHpwv6HR0UAHgNe2-2" value="&lt;font style=&quot;font-size: 24px;&quot;&gt;HIS Innovations Group - Innovations and Information Technology&lt;/font&gt;" style="swimlane;html=1;startSize=20;horizontal=1;containerType=tree;glass=0;" vertex="1" parent="Slj-wHpwv6HR0UAHgNe2-1">
          <mxGeometry x="-340" y="90" width="1460" height="800" as="geometry" />
        </mxCell>
        <UserObject label="CEO" name="Tessa Miller" position="CFO" location="Office 1" email="me@example.com" placeholders="1" link="https://www.draw.io" id="Slj-wHpwv6HR0UAHgNe2-3">
          <mxCell style="label;image=https://cdn3.iconfinder.com/data/icons/user-avatars-1/512/users-3-128.png;whiteSpace=wrap;html=1;rounded=0;glass=0;treeMoving=1;treeFolding=1;" vertex="1" parent="Slj-wHpwv6HR0UAHgNe2-2">
            <mxGeometry x="615" y="200" width="180" height="70" as="geometry" />
          </mxCell>
        </UserObject>
        <mxCell id="Slj-wHpwv6HR0UAHgNe2-4" value="" style="edgeStyle=orthogonalEdgeStyle;rounded=0;orthogonalLoop=1;jettySize=auto;html=1;" edge="1" parent="Slj-wHpwv6HR0UAHgNe2-2" source="Slj-wHpwv6HR0UAHgNe2-3" target="Slj-wHpwv6HR0UAHgNe2-5">
          <mxGeometry relative="1" as="geometry" />
        </mxCell>
        <UserObject label="CIO/CISO/CTO" name="Tessa Miller" position="CFO" location="Office 1" email="me@example.com" placeholders="1" link="https://www.draw.io" id="Slj-wHpwv6HR0UAHgNe2-5">
          <mxCell style="label;image=https://cdn3.iconfinder.com/data/icons/user-avatars-1/512/users-3-128.png;whiteSpace=wrap;html=1;rounded=0;glass=0;treeMoving=1;treeFolding=1;" vertex="1" parent="Slj-wHpwv6HR0UAHgNe2-2">
            <mxGeometry x="615" y="360" width="180" height="70" as="geometry" />
          </mxCell>
        </UserObject>
        <mxCell id="Slj-wHpwv6HR0UAHgNe2-6" value="" style="edgeStyle=orthogonalEdgeStyle;rounded=0;orthogonalLoop=1;jettySize=auto;html=1;" edge="1" parent="Slj-wHpwv6HR0UAHgNe2-2" source="Slj-wHpwv6HR0UAHgNe2-5" target="Slj-wHpwv6HR0UAHgNe2-7">
          <mxGeometry relative="1" as="geometry">
            <mxPoint x="500" y="320" as="sourcePoint" />
          </mxGeometry>
        </mxCell>
        <UserObject label="Information Technology" name="Tessa Miller" position="CFO" location="Office 1" email="me@example.com" placeholders="1" link="https://www.draw.io" id="Slj-wHpwv6HR0UAHgNe2-7">
          <mxCell style="label;image=https://cdn3.iconfinder.com/data/icons/user-avatars-1/512/users-3-128.png;whiteSpace=wrap;html=1;rounded=0;glass=0;treeMoving=1;treeFolding=1;" vertex="1" parent="Slj-wHpwv6HR0UAHgNe2-2">
            <mxGeometry x="260" y="475" width="180" height="70" as="geometry" />
          </mxCell>
        </UserObject>
        <mxCell id="Slj-wHpwv6HR0UAHgNe2-8" value="" style="edgeStyle=orthogonalEdgeStyle;rounded=0;orthogonalLoop=1;jettySize=auto;html=1;" edge="1" parent="Slj-wHpwv6HR0UAHgNe2-2" source="Slj-wHpwv6HR0UAHgNe2-5" target="Slj-wHpwv6HR0UAHgNe2-9">
          <mxGeometry relative="1" as="geometry">
            <mxPoint x="500" y="430" as="sourcePoint" />
          </mxGeometry>
        </mxCell>
        <UserObject label="Digital Innovations" name="Tessa Miller" position="CFO" location="Office 1" email="me@example.com" placeholders="1" link="https://www.draw.io" id="Slj-wHpwv6HR0UAHgNe2-9">
          <mxCell style="label;image=https://cdn3.iconfinder.com/data/icons/user-avatars-1/512/users-3-128.png;whiteSpace=wrap;html=1;rounded=0;glass=0;treeMoving=1;treeFolding=1;" vertex="1" parent="Slj-wHpwv6HR0UAHgNe2-2">
            <mxGeometry x="1015" y="475" width="180" height="70" as="geometry" />
          </mxCell>
        </UserObject>
        <mxCell id="Slj-wHpwv6HR0UAHgNe2-10" value="" style="edgeStyle=orthogonalEdgeStyle;rounded=0;orthogonalLoop=1;jettySize=auto;html=1;" edge="1" parent="Slj-wHpwv6HR0UAHgNe2-2" source="Slj-wHpwv6HR0UAHgNe2-7" target="Slj-wHpwv6HR0UAHgNe2-11">
          <mxGeometry relative="1" as="geometry">
            <mxPoint x="520" y="425" as="sourcePoint" />
          </mxGeometry>
        </mxCell>
        <UserObject label="SOC Analyst" name="Tessa Miller" position="CFO" location="Office 1" email="me@example.com" placeholders="1" link="https://www.draw.io" id="Slj-wHpwv6HR0UAHgNe2-11">
          <mxCell style="label;image=https://cdn3.iconfinder.com/data/icons/user-avatars-1/512/users-3-128.png;whiteSpace=wrap;html=1;rounded=0;glass=0;treeMoving=1;treeFolding=1;" vertex="1" parent="Slj-wHpwv6HR0UAHgNe2-2">
            <mxGeometry x="480" y="585" width="180" height="70" as="geometry" />
          </mxCell>
        </UserObject>
        <mxCell id="Slj-wHpwv6HR0UAHgNe2-12" value="" style="edgeStyle=orthogonalEdgeStyle;rounded=0;orthogonalLoop=1;jettySize=auto;html=1;" edge="1" parent="Slj-wHpwv6HR0UAHgNe2-2" source="Slj-wHpwv6HR0UAHgNe2-7" target="Slj-wHpwv6HR0UAHgNe2-13">
          <mxGeometry relative="1" as="geometry">
            <mxPoint x="340" y="595" as="sourcePoint" />
          </mxGeometry>
        </mxCell>
        <UserObject label="Identity Manager" name="Tessa Miller" position="CFO" location="Office 1" email="me@example.com" placeholders="1" link="https://www.draw.io" id="Slj-wHpwv6HR0UAHgNe2-13">
          <mxCell style="label;image=https://cdn3.iconfinder.com/data/icons/user-avatars-1/512/users-3-128.png;whiteSpace=wrap;html=1;rounded=0;glass=0;treeMoving=1;treeFolding=1;" vertex="1" parent="Slj-wHpwv6HR0UAHgNe2-2">
            <mxGeometry x="40" y="580" width="180" height="70" as="geometry" />
          </mxCell>
        </UserObject>
        <mxCell id="Slj-wHpwv6HR0UAHgNe2-14" value="" style="edgeStyle=orthogonalEdgeStyle;rounded=0;orthogonalLoop=1;jettySize=auto;html=1;" edge="1" parent="Slj-wHpwv6HR0UAHgNe2-2" source="Slj-wHpwv6HR0UAHgNe2-7" target="Slj-wHpwv6HR0UAHgNe2-15">
          <mxGeometry relative="1" as="geometry">
            <mxPoint x="100" y="550" as="sourcePoint" />
          </mxGeometry>
        </mxCell>
        <UserObject label="System Administrator" name="Tessa Miller" position="CFO" location="Office 1" email="me@example.com" placeholders="1" link="https://www.draw.io" id="Slj-wHpwv6HR0UAHgNe2-15">
          <mxCell style="label;image=https://cdn3.iconfinder.com/data/icons/user-avatars-1/512/users-3-128.png;whiteSpace=wrap;html=1;rounded=0;glass=0;treeMoving=1;treeFolding=1;" vertex="1" parent="Slj-wHpwv6HR0UAHgNe2-2">
            <mxGeometry x="260" y="585" width="180" height="70" as="geometry" />
          </mxCell>
        </UserObject>
        <mxCell id="Slj-wHpwv6HR0UAHgNe2-16" value="" style="edgeStyle=orthogonalEdgeStyle;rounded=0;orthogonalLoop=1;jettySize=auto;html=1;" edge="1" parent="Slj-wHpwv6HR0UAHgNe2-2" source="Slj-wHpwv6HR0UAHgNe2-15" target="Slj-wHpwv6HR0UAHgNe2-17">
          <mxGeometry relative="1" as="geometry">
            <mxPoint x="10" y="585" as="sourcePoint" />
          </mxGeometry>
        </mxCell>
        <UserObject label="Tier 1 Tech" name="Tessa Miller" position="CFO" location="Office 1" email="me@example.com" placeholders="1" link="https://www.draw.io" id="Slj-wHpwv6HR0UAHgNe2-17">
          <mxCell style="label;image=https://cdn3.iconfinder.com/data/icons/user-avatars-1/512/users-3-128.png;whiteSpace=wrap;html=1;rounded=0;glass=0;treeMoving=1;treeFolding=1;" vertex="1" parent="Slj-wHpwv6HR0UAHgNe2-2">
            <mxGeometry x="140" y="695" width="180" height="70" as="geometry" />
          </mxCell>
        </UserObject>
        <mxCell id="Slj-wHpwv6HR0UAHgNe2-18" value="" style="edgeStyle=orthogonalEdgeStyle;rounded=0;orthogonalLoop=1;jettySize=auto;html=1;" edge="1" parent="Slj-wHpwv6HR0UAHgNe2-2" source="Slj-wHpwv6HR0UAHgNe2-15" target="Slj-wHpwv6HR0UAHgNe2-19">
          <mxGeometry relative="1" as="geometry">
            <mxPoint x="10" y="695" as="sourcePoint" />
          </mxGeometry>
        </mxCell>
        <UserObject label="Tier 2 Tech" name="Tessa Miller" position="CFO" location="Office 1" email="me@example.com" placeholders="1" link="https://www.draw.io" id="Slj-wHpwv6HR0UAHgNe2-19">
          <mxCell style="label;image=https://cdn3.iconfinder.com/data/icons/user-avatars-1/512/users-3-128.png;whiteSpace=wrap;html=1;rounded=0;glass=0;treeMoving=1;treeFolding=1;" vertex="1" parent="Slj-wHpwv6HR0UAHgNe2-2">
            <mxGeometry x="380" y="695" width="180" height="70" as="geometry" />
          </mxCell>
        </UserObject>
        <mxCell id="Slj-wHpwv6HR0UAHgNe2-20" value="" style="edgeStyle=orthogonalEdgeStyle;rounded=0;orthogonalLoop=1;jettySize=auto;html=1;" edge="1" parent="Slj-wHpwv6HR0UAHgNe2-2" source="Slj-wHpwv6HR0UAHgNe2-9" target="Slj-wHpwv6HR0UAHgNe2-21">
          <mxGeometry relative="1" as="geometry">
            <mxPoint x="445" y="380" as="sourcePoint" />
          </mxGeometry>
        </mxCell>
        <UserObject label="ERP Manager" name="Tessa Miller" position="CFO" location="Office 1" email="me@example.com" placeholders="1" link="https://www.draw.io" id="Slj-wHpwv6HR0UAHgNe2-21">
          <mxCell style="label;image=https://cdn3.iconfinder.com/data/icons/user-avatars-1/512/users-3-128.png;whiteSpace=wrap;html=1;rounded=0;glass=0;treeMoving=1;treeFolding=1;" vertex="1" parent="Slj-wHpwv6HR0UAHgNe2-2">
            <mxGeometry x="1015" y="585" width="180" height="70" as="geometry" />
          </mxCell>
        </UserObject>
        <mxCell id="Slj-wHpwv6HR0UAHgNe2-22" value="" style="edgeStyle=orthogonalEdgeStyle;rounded=0;orthogonalLoop=1;jettySize=auto;html=1;" edge="1" parent="Slj-wHpwv6HR0UAHgNe2-2" source="Slj-wHpwv6HR0UAHgNe2-9" target="Slj-wHpwv6HR0UAHgNe2-23">
          <mxGeometry relative="1" as="geometry">
            <mxPoint x="765" y="585" as="sourcePoint" />
          </mxGeometry>
        </mxCell>
        <UserObject label="Business Analyst" name="Tessa Miller" position="CFO" location="Office 1" email="me@example.com" placeholders="1" link="https://www.draw.io" id="Slj-wHpwv6HR0UAHgNe2-23">
          <mxCell style="label;image=https://cdn3.iconfinder.com/data/icons/user-avatars-1/512/users-3-128.png;whiteSpace=wrap;html=1;rounded=0;glass=0;treeMoving=1;treeFolding=1;" vertex="1" parent="Slj-wHpwv6HR0UAHgNe2-2">
            <mxGeometry x="795" y="585" width="180" height="70" as="geometry" />
          </mxCell>
        </UserObject>
        <mxCell id="Slj-wHpwv6HR0UAHgNe2-24" value="" style="edgeStyle=orthogonalEdgeStyle;rounded=0;orthogonalLoop=1;jettySize=auto;html=1;" edge="1" parent="Slj-wHpwv6HR0UAHgNe2-2" source="Slj-wHpwv6HR0UAHgNe2-9" target="Slj-wHpwv6HR0UAHgNe2-25">
          <mxGeometry relative="1" as="geometry">
            <mxPoint x="765" y="585" as="sourcePoint" />
          </mxGeometry>
        </mxCell>
        <UserObject label="Data Analytics Lead" name="Tessa Miller" position="CFO" location="Office 1" email="me@example.com" placeholders="1" link="https://www.draw.io" id="Slj-wHpwv6HR0UAHgNe2-25">
          <mxCell style="label;image=https://cdn3.iconfinder.com/data/icons/user-avatars-1/512/users-3-128.png;whiteSpace=wrap;html=1;rounded=0;glass=0;treeMoving=1;treeFolding=1;" vertex="1" parent="Slj-wHpwv6HR0UAHgNe2-2">
            <mxGeometry x="1235" y="585" width="180" height="70" as="geometry" />
          </mxCell>
        </UserObject>
        <mxCell id="Slj-wHpwv6HR0UAHgNe2-26" value="" style="edgeStyle=orthogonalEdgeStyle;rounded=0;orthogonalLoop=1;jettySize=auto;html=1;" edge="1" parent="Slj-wHpwv6HR0UAHgNe2-2" source="Slj-wHpwv6HR0UAHgNe2-25" target="Slj-wHpwv6HR0UAHgNe2-27">
          <mxGeometry relative="1" as="geometry">
            <mxPoint x="855" y="550" as="sourcePoint" />
          </mxGeometry>
        </mxCell>
        <UserObject label="Data Analytics Tech" name="Tessa Miller" position="CFO" location="Office 1" email="me@example.com" placeholders="1" link="https://www.draw.io" id="Slj-wHpwv6HR0UAHgNe2-27">
          <mxCell style="label;image=https://cdn3.iconfinder.com/data/icons/user-avatars-1/512/users-3-128.png;whiteSpace=wrap;html=1;rounded=0;glass=0;treeMoving=1;treeFolding=1;" vertex="1" parent="Slj-wHpwv6HR0UAHgNe2-2">
            <mxGeometry x="1235" y="685" width="180" height="70" as="geometry" />
          </mxCell>
        </UserObject>
        <mxCell id="Slj-wHpwv6HR0UAHgNe2-28" value="" style="edgeStyle=orthogonalEdgeStyle;rounded=0;orthogonalLoop=1;jettySize=auto;html=1;" edge="1" parent="Slj-wHpwv6HR0UAHgNe2-2" source="Slj-wHpwv6HR0UAHgNe2-21" target="Slj-wHpwv6HR0UAHgNe2-29">
          <mxGeometry relative="1" as="geometry">
            <mxPoint x="765" y="585" as="sourcePoint" />
          </mxGeometry>
        </mxCell>
        <UserObject label="ERP Tech" name="Tessa Miller" position="CFO" location="Office 1" email="me@example.com" placeholders="1" link="https://www.draw.io" id="Slj-wHpwv6HR0UAHgNe2-29">
          <mxCell style="label;image=https://cdn3.iconfinder.com/data/icons/user-avatars-1/512/users-3-128.png;whiteSpace=wrap;html=1;rounded=0;glass=0;treeMoving=1;treeFolding=1;" vertex="1" parent="Slj-wHpwv6HR0UAHgNe2-2">
            <mxGeometry x="1015" y="685" width="180" height="70" as="geometry" />
          </mxCell>
        </UserObject>
        <mxCell id="jz6yITe0y_Qr1YVVSjyg-0" value="" style="edgeStyle=orthogonalEdgeStyle;rounded=0;orthogonalLoop=1;jettySize=auto;html=1;" edge="1" source="Slj-wHpwv6HR0UAHgNe2-3" target="jz6yITe0y_Qr1YVVSjyg-1" parent="Slj-wHpwv6HR0UAHgNe2-2">
          <mxGeometry relative="1" as="geometry" />
        </mxCell>
        <UserObject label="Board of Directors" name="Tessa Miller" position="CFO" location="Office 1" email="me@example.com" placeholders="1" link="https://www.draw.io" id="jz6yITe0y_Qr1YVVSjyg-1">
          <mxCell style="label;image=https://cdn3.iconfinder.com/data/icons/user-avatars-1/512/users-3-128.png;whiteSpace=wrap;html=1;rounded=0;glass=0;treeMoving=1;treeFolding=1;" vertex="1" parent="Slj-wHpwv6HR0UAHgNe2-2">
            <mxGeometry x="615" y="50" width="180" height="70" as="geometry" />
          </mxCell>
        </UserObject>
        <mxCell id="jz6yITe0y_Qr1YVVSjyg-2" value="" style="edgeStyle=orthogonalEdgeStyle;rounded=0;orthogonalLoop=1;jettySize=auto;html=1;" edge="1" target="jz6yITe0y_Qr1YVVSjyg-3" source="Slj-wHpwv6HR0UAHgNe2-3" parent="Slj-wHpwv6HR0UAHgNe2-2">
          <mxGeometry relative="1" as="geometry">
            <mxPoint x="320" y="430" as="sourcePoint" />
          </mxGeometry>
        </mxCell>
        <UserObject label="CFO" name="Tessa Miller" position="CFO" location="Office 1" email="me@example.com" placeholders="1" link="https://www.draw.io" id="jz6yITe0y_Qr1YVVSjyg-3">
          <mxCell style="label;image=https://cdn3.iconfinder.com/data/icons/user-avatars-1/512/users-3-128.png;whiteSpace=wrap;html=1;rounded=0;glass=0;treeMoving=1;treeFolding=1;" vertex="1" parent="Slj-wHpwv6HR0UAHgNe2-2">
            <mxGeometry x="370" y="300" width="180" height="70" as="geometry" />
          </mxCell>
        </UserObject>
        <mxCell id="jz6yITe0y_Qr1YVVSjyg-4" value="" style="edgeStyle=orthogonalEdgeStyle;rounded=0;orthogonalLoop=1;jettySize=auto;html=1;" edge="1" target="jz6yITe0y_Qr1YVVSjyg-5" source="Slj-wHpwv6HR0UAHgNe2-3" parent="Slj-wHpwv6HR0UAHgNe2-2">
          <mxGeometry relative="1" as="geometry">
            <mxPoint x="230" y="395" as="sourcePoint" />
          </mxGeometry>
        </mxCell>
        <UserObject label="CPO" name="Tessa Miller" position="CFO" location="Office 1" email="me@example.com" placeholders="1" link="https://www.draw.io" id="jz6yITe0y_Qr1YVVSjyg-5">
          <mxCell style="label;image=https://cdn3.iconfinder.com/data/icons/user-avatars-1/512/users-3-128.png;whiteSpace=wrap;html=1;rounded=0;glass=0;treeMoving=1;treeFolding=1;" vertex="1" parent="Slj-wHpwv6HR0UAHgNe2-2">
            <mxGeometry x="840" y="300" width="180" height="70" as="geometry" />
          </mxCell>
        </UserObject>
        <mxCell id="jz6yITe0y_Qr1YVVSjyg-6" value="" style="endArrow=classic;startArrow=classic;html=1;rounded=0;" edge="1" parent="Slj-wHpwv6HR0UAHgNe2-2" source="Slj-wHpwv6HR0UAHgNe2-7" target="Slj-wHpwv6HR0UAHgNe2-9">
          <mxGeometry width="50" height="50" relative="1" as="geometry">
            <mxPoint x="680" y="480" as="sourcePoint" />
            <mxPoint x="730" y="430" as="targetPoint" />
          </mxGeometry>
        </mxCell>
      </root>
    </mxGraphModel>
  </diagram>
</mxfile>
